<?xml version="1.0" encoding="iso-8859-1"?>
<!-- Generator: Adobe Illustrator 19.0.0, SVG Export Plug-In . SVG Version: 6.00 Build 0)  -->
<svg version="1.1" id="Layer_1" xmlns="http://www.w3.org/2000/svg" xmlns:xlink="http://www.w3.org/1999/xlink" x="0px" y="0px"
	 viewBox="0 0 512 512" style="enable-background:new 0 0 512 512;" xml:space="preserve">
<path style="fill:#AB91EA;" d="M0,256.006C0,397.402,114.606,512.004,255.996,512C397.394,512.004,512,397.402,512,256.006
	C512.009,114.61,397.394,0,255.996,0C114.606,0,0,114.614,0,256.006z"/>
<path style="fill:#947ADB;" d="M504.18,319.009c-2.986-2.96-150.064-149.058-150.558-149.545
	c-4.549-4.921-10.255-8.835-16.084-10.572c-37.625-11.221-100.366-8.159-128.793-1.013c-11.415,2.873-20.471,11.535-23.632,22.619
	l-24.595,86.077c-0.831,1.117-1.409,2.383-1.521,3.794c-0.32,0.289-0.7,0.538-1.158,0.691c-5.677,1.933-22.341,8.195-54.391,24.725
	c-7.164,3.698-28.959,14.948-26.447,31.026c0.658,4.21,2.961,7.825,6.18,10.977c0.449,0.511,169.318,168.834,169.556,168.833
	c1.629,1.777,3.242,3.564,4.841,5.359C376.534,511.263,476.235,429.442,504.18,319.009z"/>
<path style="fill:#F4F6F9;" d="M420.951,268.874c-12.118-4.572-31.234-6.891-40.549-7.044l-17.934-76.679
	c-2.654-11.346-13.602-22.881-24.93-26.257c-37.625-11.222-100.366-8.159-128.793-1.013c-11.415,2.873-20.471,11.535-23.632,22.619
	l-24.595,86.077c-0.831,1.117-1.409,2.383-1.521,3.794c-0.32,0.288-0.7,0.538-1.158,0.691c-5.677,1.933-22.341,8.196-54.393,24.726
	c-7.164,3.697-28.959,14.948-26.447,31.026c3.008,19.228,39.102,26.738,50.097,28.583c21.408,3.58,36.925,5.126,49.507,5.126
	c21.263,0,34.147-4.404,52.897-10.814c17.941-6.132,42.507-14.532,86.851-22.961c26.279-4.995,46.35-8.218,62.471-10.806
	c40.432-6.497,54.053-8.685,56.204-24.551C436.307,281.904,430.39,272.432,420.951,268.874z M199.47,184.596
	c1.707-5.972,6.657-10.66,12.917-12.236c26.133-6.562,86.209-9.501,120.881,0.838c6.227,1.859,13.216,9.173,14.66,15.349
	l18.153,77.613c0.029,0.103,0.102,0.185,0.133,0.288c-149.747,36.597-184.513,11.836-191.302,4.094L199.47,184.596z
	 M376.458,301.198c-16.221,2.603-36.403,5.847-62.891,10.879c-45.387,8.626-70.532,17.222-88.896,23.501
	c-29.178,9.982-41.26,14.11-95.105,5.089c-16.756-2.807-36.925-10.485-37.811-16.158c-0.295-1.889,3.201-7.539,18.539-15.451
	c31.154-16.07,46.983-22.035,52.336-23.851c1.392-0.469,2.688-1.108,3.892-1.862c8.876,7.946,28.167,17.372,69.867,17.372
	c31.996,0,77.179-5.556,140.905-21.598c1.491-0.375,2.656-1.263,3.614-2.326c8.582,0.237,25.15,2.425,34.773,6.052
	c2.946,1.116,4.904,3.923,4.55,6.548C419.591,294.081,407.122,296.269,376.458,301.198z"/>
<g>
</g>
<g>
</g>
<g>
</g>
<g>
</g>
<g>
</g>
<g>
</g>
<g>
</g>
<g>
</g>
<g>
</g>
<g>
</g>
<g>
</g>
<g>
</g>
<g>
</g>
<g>
</g>
<g>
</g>
</svg>
